<?xml version="1.0" encoding="utf-8"?>
<!-- Generator: Adobe Illustrator 24.1.1, SVG Export Plug-In . SVG Version: 6.00 Build 0)  -->
<svg version="1.1" id="Layer_1" xmlns="http://www.w3.org/2000/svg" xmlns:xlink="http://www.w3.org/1999/xlink" x="0px" y="0px"
	 viewBox="0 0 512 512" style="enable-background:new 0 0 512 512;" xml:space="preserve">
<style type="text/css">
	.st0{fill:#FFFFFF;}
</style>
<path class="st0" d="M256,76.5c-87.6,0-158.9,71.3-158.9,158.9S168.4,394.3,256,394.3S414.9,323,414.9,235.4S343.6,76.5,256,76.5
	L256,76.5z M325.5,279.7c-3.2,1.2-5.2,4.3-5.2,7.7c0,39.2-29.9,66.3-63.4,66.7c-35.9,0.4-65-28.4-65-64.2v-2.5
	c0-3.4-2.1-6.4-5.2-7.7c-27.1-10.5-45.9-36.8-45.9-67.1c0-57.7,64.2-90.8,110.9-60.6c2.7,1.8,6.3,1.8,9,0
	c46.6-30.2,110.9,2.9,110.9,60.6C371.3,242.9,352.5,269.2,325.5,279.7L325.5,279.7z M437,80.2c-100-100-261.9-100-361.9,0
	C-23,178.3-25,335.8,69.2,436.1v54.2c0,9.1,7.4,16.5,16.5,16.5h342.6c9.1,0,16.5-7.4,16.5-16.5v-56.4
	C536.8,333.6,534.5,177.7,437,80.2L437,80.2z M418.4,413.9h-55.2l-5.8-25.8c-1.2-5.5-7.5-8.2-12.3-5.3
	c-54.7,33.2-123.6,33.1-178.1,0c-4.8-2.9-11.1-0.2-12.3,5.3l-5.8,25.8H93.6c-39-41.4-60.5-95.3-60.5-152.5
	C32.9,138.7,133.2,38.3,256,38.3c122.9,0,222.9,100,222.9,222.9C478.9,318.5,457.5,372.4,418.4,413.9L418.4,413.9z M88.2,275
	c1.7,7-5.9,12.6-12.2,9c-38-21.3-38-76,0-97.3c6.3-3.5,13.8,2,12.2,9C82.2,221.5,82.1,248.8,88.2,275L88.2,275z M435.9,284
	c-6.3,3.5-13.8-2-12.2-9c6.1-25.6,6.2-53,0-79.2c-1.7-7,5.9-12.6,12.2-9C474,208.1,473.9,262.7,435.9,284L435.9,284z M221.9,239.5
	c-9.1,0-16.5-7.4-16.5-16.5v-6.2c0-9.1,7.4-16.5,16.5-16.5s16.5,7.4,16.5,16.5v6.2C238.5,232.1,231.1,239.5,221.9,239.5z
	 M290.1,239.5c-9.1,0-16.5-7.4-16.5-16.5v-6.2c0-9.1,7.4-16.5,16.5-16.5c9.1,0,16.5,7.4,16.5,16.5v6.2
	C306.6,232.1,299.2,239.5,290.1,239.5z"/>
<rect x="131.6" y="163.5" class="st0" width="244.4" height="22.2"/>
<rect x="131.6" y="256" class="st0" width="244.4" height="22.2"/>
</svg>
