<svg id="Layer_1" enable-background="new 0 0 496.115 496.115" height="512" viewBox="0 0 496.115 496.115" width="512" xmlns="http://www.w3.org/2000/svg"><path d="m248.058 74.086c-84.92 0-154 69.08-154 154s69.08 154 154 154 154-69.08 154-154-69.08-154-154-154zm67.302 196.922c-3.069 1.192-5.072 4.149-5.072 7.441-.002 38-28.952 64.252-61.479 64.633-34.747.407-62.981-27.561-62.981-62.226v-2.41c0-3.291-2.014-6.249-5.081-7.441-26.212-10.186-44.459-35.639-44.459-64.998 0-55.919 62.23-88.005 107.415-58.707 2.651 1.719 6.058 1.719 8.709 0 45.18-29.294 107.415 2.782 107.415 58.707.001 29.357-18.246 54.816-44.467 65.001zm108.058-193.282c-96.929-96.93-253.791-96.93-350.72 0-95.026 95.026-96.88 247.641-5.64 344.89v52.47c0 8.84 7.16 16 16 16h332c8.84 0 16-7.16 16-16v-54.62c89.073-97.174 86.825-248.275-7.64-342.74zm-18.03 323.36h-53.51l-5.576-24.971c-1.191-5.333-7.262-7.934-11.934-5.101-53.044 32.167-119.78 32.043-172.62 0-4.672-2.833-10.743-.232-11.934 5.101l-5.576 24.971h-53.52c-37.819-40.145-58.593-92.341-58.66-147.732-.144-118.972 97.028-216.268 216-216.268 119.1 0 216 96.9 216 216 0 55.49-20.78 107.79-58.67 148zm-319.877-134.614c1.608 6.811-5.672 12.171-11.777 8.751-36.869-20.656-36.854-73.627 0-94.275 6.105-3.421 13.386 1.94 11.777 8.751-5.887 24.929-5.989 51.413 0 76.773zm336.871 8.751c-6.105 3.42-13.386-1.94-11.777-8.751 5.863-24.824 6.014-51.309 0-76.773-1.608-6.811 5.672-12.171 11.777-8.751 36.869 20.657 36.854 73.628 0 94.275zm-207.324-43.137c-8.836 0-16-7.163-16-16v-6c0-8.837 7.164-16 16-16s16 7.163 16 16v6c0 8.837-7.164 16-16 16zm66 0c-8.836 0-16-7.163-16-16v-6c0-8.837 7.164-16 16-16s16 7.163 16 16v6c0 8.837-7.164 16-16 16z"/></svg>